<?xml version="1.0" encoding="UTF-8"?>
<svg viewBox="0 0 640 480" xmlns="http://www.w3.org/2000/svg">
 <g transform="rotate(45 417.26 241.11)">
  <g fill="none">
   <rect x="403.38" y="146.33" width="24.743" height="20.912"/>
   <rect x="372.78" y="68.711" width="24.715" height="20.907"/>
   <rect x="403.38" y="120.46" width="24.743" height="20.9"/>
   <rect x="403.38" y="42.474" width="24.743" height="21.263"/>
   <rect x="403.38" y="198.08" width="24.743" height="20.608"/>
   <rect x="403.38" y="172.21" width="24.743" height="20.914"/>
   <rect x="372.78" y="94.592" width="24.715" height="20.9"/>
   <rect x="372.78" y="42.474" width="24.715" height="21.263"/>
   <path d="m397.49 243.96v-20.297h-24.713v7.8361c7.6324 5.6541 15.929 9.8846 24.713 12.461z"/>
   <path d="m428.12 245.95v-22.287h-24.743v21.677c4.5435 0.91894 9.1541 1.5472 13.887 1.5472 3.6798 0 7.2925-0.37592 10.856-0.93732z"/>
   <rect x="372.78" y="120.46" width="24.715" height="20.9"/>
   <rect x="372.78" y="198.08" width="24.715" height="20.608"/>
   <rect x="372.78" y="172.21" width="24.715" height="20.914"/>
   <rect x="372.78" y="146.33" width="24.715" height="20.912"/>
   <path d="m336.3 167.25v-20.912h-8.6857c0.87744 7.2096 2.2312 14.19 4.0474 20.912h4.6383z"/>
   <rect x="403.38" y="68.711" width="24.743" height="20.907"/>
   <rect x="342.18" y="94.592" width="24.715" height="20.9"/>
   <rect x="342.18" y="68.711" width="24.715" height="20.907"/>
   <rect x="342.18" y="120.46" width="24.715" height="20.9"/>
   <path d="m366.89 42.474h-10.563c-5.3063 5.8562-10.099 12.431-14.152 19.786v1.477h24.715v-21.263z"/>
   <path d="m336.3 120.46h-9.6581c-0.10275 2.3341-0.2727 4.6398-0.2727 7.0274 0 4.6983 0.25888 9.3148 0.66602 13.874h9.2628l2e-3 -20.902z"/>
   <rect x="342.18" y="146.33" width="24.715" height="20.912"/>
   <rect x="342.18" y="172.21" width="24.715" height="20.914"/>
   <path d="m336.3 172.21h-3.251c0.98022 3.1628 2.081 6.2388 3.251 9.258v-9.258z"/>
   <rect x="403.38" y="94.592" width="24.743" height="20.9"/>
   <path d="m336.3 115.49v-20.9h-6.2431c-1.5296 6.6866-2.662 13.644-3.2253 20.9h9.4684z"/>
   <path d="m336.3 74.776c-1.9249 4.7351-3.5889 9.6824-4.9782 14.84h4.9782v-14.84z"/>
   <rect x="433.99" y="172.21" width="24.737" height="20.914"/>
   <path d="m372.78 28.053v9.4535h24.713v-20.73c-8.7846 2.3057-17.081 6.1219-24.713 11.276z"/>
   <path d="m464.61 37.505h8.7984c-2.8024-2.6766-5.7451-5.1127-8.7984-7.3633v7.3633z"/>
   <path d="m403.38 37.505h24.743v-22.511c-3.5632-0.49958-7.1759-0.83374-10.852-0.83374-4.7352 0-9.3458 0.55471-13.887 1.3768l-0.0039 21.968z"/>
   <path d="m366.89 37.505v-5.1511c-1.9941 1.604-3.8972 3.3583-5.7747 5.1511h5.7747z"/>
   <path d="m489.33 199.96v-1.8797h-24.715v20.608h11.186c5.0198-5.5672 9.5296-11.874 13.53-18.728z"/>
   <path d="m495.21 146.33v20.912h7.6442c1.8142-6.7217 3.17-13.702 4.0455-20.912h-11.69z"/>
   <path d="m495.21 188.57c2.3795-5.2213 4.502-10.655 6.2569-16.354h-6.2569v16.354z"/>
   <path d="m495.21 94.592v20.9h12.474c-0.56519-7.2564-1.6937-14.214-3.2233-20.9h-9.2509z"/>
   <path d="m366.89 218.69v-20.608h-22.763c4.2569 7.5888 9.1265 14.536 14.605 20.608h8.1581z"/>
   <rect x="464.61" y="172.21" width="24.715" height="20.914"/>
   <rect x="433.99" y="198.08" width="24.737" height="20.608"/>
   <path d="m464.61 223.66v5.5538c2.1561-1.741 4.2549-3.5872 6.2905-5.5538h-6.2905z"/>
   <path d="m382.22 251.51c7.834 11.094 15.561 22.833 19.648 31.5 8.8893 18.765 13.862 41.83 15.174 48.38h0.69962c1.2984-6.5496 6.2865-29.612 15.176-48.38 4.1087-8.705 11.86-20.521 19.751-31.642-11.075 4.964-22.974 7.6824-35.399 7.6824-12.292-0.001648-24.099-2.6616-35.049-7.5404z"/>
   <path d="m366.89 223.66h-3.2648c1.0889 1.0459 2.1423 2.1453 3.2648 3.1328v-3.1328z"/>
   <rect x="464.61" y="68.711" width="24.715" height="20.907"/>
   <rect x="433.99" y="68.711" width="24.737" height="20.907"/>
   <rect x="433.99" y="42.474" width="24.737" height="21.263"/>
   <path d="m433.99 16.046v21.458h24.737v-11.377c-7.6877-4.7318-15.984-8.1552-24.737-10.082z"/>
   <path d="m458.73 233.61v-9.948h-24.735v21.106c8.7529-2.1487 17.049-5.9548 24.735-11.158z"/>
   <rect x="433.99" y="94.592" width="24.737" height="20.9"/>
   <rect x="464.61" y="146.33" width="24.715" height="20.912"/>
   <rect x="433.99" y="120.46" width="24.737" height="20.9"/>
   <rect x="433.99" y="146.33" width="24.737" height="20.912"/>
   <rect x="464.61" y="120.46" width="24.715" height="20.9"/>
   <rect x="464.61" y="94.592" width="24.715" height="20.9"/>
   <path d="m464.61 63.737h24.715v-6.4677c-3.3459-5.3767-7.0672-10.309-11.126-14.795h-13.589v21.263z"/>
   <path d="m495.21 141.36h12.269c0.40118-4.5596 0.66602-9.1761 0.66602-13.874 0-2.3859-0.16998-4.6916-0.27277-7.0274h-12.664l2e-3 20.902z"/>
   <path d="m495.21 89.616h7.9842c-1.9921-7.4067-4.5692-14.382-7.6522-20.907h-0.33203v20.907z"/>
  </g>
  <path d="m522.53 127.48c0-72.535-47.211-125.48-105.26-125.48s-105.27 52.95-105.27 125.48c0 38.663 13.411 73.478 34.733 97.581l-1.0553 0.5865c0.332 0.41437 33.196 41.485 42.84 61.867 7.5494 15.918 12.204 35.834 13.901 43.867h-3.7194v131.27l-6.2766 6.3474v11.213h50.763v-12.087l-7.8063-6.5814v-130.16h-3.0197c1.6917-8.0333 6.3794-27.951 13.895-43.867 9.6363-20.382 42.506-61.453 42.854-61.867l-1.2233-0.7017c21.273-24.075 34.642-58.856 34.642-97.467zm-196.16 0c0-2.3859 0.16995-4.6916 0.2727-7.0274h9.6581v20.9h-9.2628c-0.40909-4.558-0.66797-9.1744-0.66797-13.873zm15.808 13.874v-20.9h24.715v20.9h-24.715zm24.713 4.974v20.912h-24.713v-20.912h24.713zm-24.713-30.842v-20.9h24.715v20.9h-24.715zm0-25.876v-20.905h24.715v20.907l-24.715-0.0017zm0-25.879v-1.477c4.0533-7.3533 8.8478-13.928 14.152-19.786h10.563v21.263h-24.715zm-5.8774 30.855v20.9h-9.4664c0.56323-7.2564 1.6917-14.214 3.2253-20.9h6.2411zm-4.9782-4.9757c1.3873-5.1578 3.0533-10.105 4.9782-14.84v14.84h-4.9782zm4.9782 56.718v20.912h-4.6383c-1.8162-6.7217-3.17-13.702-4.0474-20.912h8.6857zm0 25.881v9.258c-1.17-3.0192-2.2688-6.0951-3.251-9.258h3.251zm5.8774 0h24.715v20.914h-24.715v-20.914zm85.944-77.623v20.9h-24.743v-20.9h24.743zm-24.743-4.9757v-20.905h24.743v20.907l-24.743-0.0017zm24.743 30.843v20.9h-24.743v-20.9h24.743zm0 25.874v20.912h-24.743v-20.912h24.743zm0 25.881v20.914h-24.743v-20.914h24.743zm0 25.868v20.608h-24.743v-20.608h24.743zm0-134.35h-24.743v-21.263h24.743v21.263zm-30.628 4.974v20.907h-24.713v-20.907h24.713zm-24.713-4.974v-21.263h24.713v21.263h-24.713zm24.713 30.855v20.9h-24.713v-20.9h24.713zm0 25.868v20.9h-24.713v-20.9h24.713zm0 25.874v20.912h-24.713v-20.912h24.713zm0 25.881v20.914h-24.713v-20.914h24.713zm0 25.868v20.608h-24.713v-20.608h24.713zm-24.713-160.58v-9.4535c7.6304-5.1545 15.931-8.9706 24.715-11.276v20.73h-24.715zm24.713 186.16v20.297c-8.7846-2.5764-17.085-6.8069-24.715-12.461v-7.8361h24.715zm5.8854 0h24.743v22.287c-3.5632 0.5614-7.1759 0.93732-10.852 0.93732-4.7352 0-9.3458-0.62656-13.887-1.5472l-0.0039-21.677zm30.612-30.538v-20.914h24.737v20.914h-24.737zm24.735 4.9556v20.608h-24.735v-20.608h24.735zm-24.735-30.837v-20.912h24.737v20.912h-24.737zm0-25.886v-20.9h24.737v20.9h-24.737zm0-25.868v-20.9h24.737v20.9h-24.737zm0-25.876v-20.905h24.737v20.907l-24.737-0.0017zm0-25.879v-21.263h24.737v21.263h-24.737zm24.735 159.93v9.948c-7.6857 5.2029-15.982 9.0107-24.737 11.161v-21.107l24.737-0.0017zm-24.735-186.16v-21.458c8.7529 1.9264 17.051 5.35 24.737 10.083v11.377l-24.737-0.0017zm55.334 19.764v6.4677h-24.715v-21.263h13.589c4.0593 4.4845 7.7786 9.4184 11.126 14.795zm13.874 32.347h-7.9842v-20.905h0.33203c3.083 6.5229 5.66 13.5 7.6522 20.905zm4.9506 37.869c0 4.6984-0.26483 9.3148-0.66602 13.874h-12.269v-20.9h12.664c0.10077 2.3341 0.27075 4.6398 0.27075 7.0258zm-18.824-32.893v20.9h-24.715v-20.9h24.715zm-24.715-4.9757v-20.905h24.715v20.907l-24.715-0.0017zm24.715 30.843v20.9h-24.715v-20.9h24.715zm0 25.874v20.912h-24.715v-20.912h24.715zm0 25.881v20.914h-24.715v-20.914h24.715zm5.8893-4.969v-20.912h11.692c-0.87549 7.2096-2.2312 14.19-4.0455 20.912h-7.6462zm6.2569 4.969c-1.7549 5.6992-3.8774 11.133-6.2569 16.354v-16.354h6.2569zm-6.2569-56.722v-20.9h9.2509c1.5277 6.6866 2.6581 13.644 3.2233 20.9h-12.474zm-30.605 82.59h24.715v1.8797c-3.998 6.8537-8.5099 13.161-13.53 18.726h-11.186v-20.606zm8.8004-160.58h-8.7984v-7.3633c3.0513 2.2523 5.996 4.6866 8.7984 7.3633zm-45.288-22.511v22.511h-24.743v-21.966c4.5435-0.82204 9.1541-1.3768 13.887-1.3768 3.6798-0.001671 7.2925 0.33249 10.856 0.83207zm-61.231 17.36v5.1511h-5.7747c1.8775-1.7928 3.7826-3.5471 5.7747-5.1511zm-22.763 165.73h22.767v20.608h-8.162c-5.4782-6.0717-10.348-13.017-14.605-20.608zm19.498 25.582h3.2648v3.1328c-1.1205-0.98746-2.1759-2.0868-3.2648-3.1328zm69.29 59.346c-8.8893 18.767-13.875 41.831-15.176 48.38h-0.69958c-1.3123-6.5496-6.2846-29.614-15.174-48.38-4.087-8.6682-11.816-20.406-19.648-31.498 10.95 4.8754 22.757 7.5387 35.045 7.5387 12.423 0 24.328-2.7217 35.397-7.6824-7.8834 11.119-15.636 22.935-19.745 31.642zm31.694-53.792v-5.5538h6.2905c-2.0336 1.9666-4.1344 3.8128-6.2905 5.5538z"/>
 </g>
 <g transform="rotate(-45 225.26 241.11)">
  <g fill="none">
   <rect x="211.38" y="146.33" width="24.743" height="20.912"/>
   <rect x="180.78" y="68.711" width="24.715" height="20.907"/>
   <rect x="211.38" y="120.46" width="24.743" height="20.9"/>
   <rect x="211.38" y="42.474" width="24.743" height="21.263"/>
   <rect x="211.38" y="198.08" width="24.743" height="20.608"/>
   <rect x="211.38" y="172.21" width="24.743" height="20.914"/>
   <rect x="180.78" y="94.592" width="24.715" height="20.9"/>
   <rect x="180.78" y="42.474" width="24.715" height="21.263"/>
   <path d="m205.49 243.96v-20.297h-24.713v7.8361c7.6324 5.6541 15.929 9.8846 24.713 12.461z"/>
   <path d="m236.12 245.95v-22.287h-24.743v21.677c4.5435 0.91894 9.1541 1.5472 13.887 1.5472 3.6798 0 7.2925-0.37592 10.856-0.93732z"/>
   <rect x="180.78" y="120.46" width="24.715" height="20.9"/>
   <rect x="180.78" y="198.08" width="24.715" height="20.608"/>
   <rect x="180.78" y="172.21" width="24.715" height="20.914"/>
   <rect x="180.78" y="146.33" width="24.715" height="20.912"/>
   <path d="m144.3 167.25v-20.912h-8.6857c0.87744 7.2096 2.2312 14.19 4.0474 20.912h4.6383z"/>
   <rect x="211.38" y="68.711" width="24.743" height="20.907"/>
   <rect x="150.18" y="94.592" width="24.715" height="20.9"/>
   <rect x="150.18" y="68.711" width="24.715" height="20.907"/>
   <rect x="150.18" y="120.46" width="24.715" height="20.9"/>
   <path d="m174.89 42.474h-10.563c-5.3063 5.8562-10.099 12.431-14.152 19.786v1.477h24.715v-21.263z"/>
   <path d="m144.3 120.46h-9.6581c-0.10275 2.3341-0.2727 4.6398-0.2727 7.0274 0 4.6983 0.25888 9.3148 0.66598 13.874h9.2628l2e-3 -20.902z"/>
   <rect x="150.18" y="146.33" width="24.715" height="20.912"/>
   <rect x="150.18" y="172.21" width="24.715" height="20.914"/>
   <path d="m144.3 172.21h-3.251c0.98022 3.1628 2.081 6.2388 3.251 9.258v-9.258z"/>
   <rect x="211.38" y="94.592" width="24.743" height="20.9"/>
   <path d="m144.3 115.49v-20.9h-6.2431c-1.5296 6.6866-2.662 13.644-3.2253 20.9h9.4684z"/>
   <path d="m144.3 74.776c-1.9249 4.7351-3.5889 9.6824-4.9782 14.84h4.9782v-14.84z"/>
   <rect x="241.99" y="172.21" width="24.737" height="20.914"/>
   <path d="m180.78 28.053v9.4535h24.713v-20.73c-8.7846 2.3057-17.081 6.1219-24.713 11.276z"/>
   <path d="m272.61 37.505h8.7984c-2.8024-2.6766-5.7451-5.1127-8.7984-7.3633v7.3633z"/>
   <path d="m211.38 37.505h24.743v-22.511c-3.5632-0.49958-7.1759-0.83374-10.852-0.83374-4.7352 0-9.3458 0.55471-13.887 1.3768l-0.0039 21.968z"/>
   <path d="m174.89 37.505v-5.1511c-1.9941 1.604-3.8972 3.3583-5.7747 5.1511h5.7747z"/>
   <path d="m297.33 199.96v-1.8797h-24.715v20.608h11.186c5.0198-5.5672 9.5296-11.874 13.53-18.728z"/>
   <path d="m303.21 146.33v20.912h7.6442c1.8142-6.7217 3.17-13.702 4.0455-20.912h-11.69z"/>
   <path d="m303.21 188.57c2.3795-5.2213 4.502-10.655 6.2569-16.354h-6.2569v16.354z"/>
   <path d="m303.21 94.592v20.9h12.474c-0.56519-7.2564-1.6937-14.214-3.2233-20.9h-9.251z"/>
   <path d="m174.89 218.69v-20.608h-22.763c4.2569 7.5888 9.1265 14.536 14.605 20.608h8.1581z"/>
   <rect x="272.61" y="172.21" width="24.715" height="20.914"/>
   <rect x="241.99" y="198.08" width="24.737" height="20.608"/>
   <path d="m272.61 223.66v5.5538c2.1561-1.741 4.2549-3.5872 6.2905-5.5538h-6.2905z"/>
   <path d="m190.22 251.51c7.834 11.094 15.561 22.833 19.648 31.5 8.8893 18.765 13.862 41.83 15.174 48.38h0.69962c1.2984-6.5496 6.2865-29.612 15.176-48.38 4.1087-8.705 11.86-20.521 19.751-31.642-11.075 4.964-22.974 7.6824-35.399 7.6824-12.292-0.001648-24.099-2.6616-35.049-7.5404z"/>
   <path d="m174.89 223.66h-3.2648c1.0889 1.0459 2.1423 2.1453 3.2648 3.1328v-3.1328z"/>
   <rect x="272.61" y="68.711" width="24.715" height="20.907"/>
   <rect x="241.99" y="68.711" width="24.737" height="20.907"/>
   <rect x="241.99" y="42.474" width="24.737" height="21.263"/>
   <path d="m241.99 16.046v21.458h24.737v-11.377c-7.6877-4.7318-15.984-8.1552-24.737-10.082z"/>
   <path d="m266.73 233.61v-9.948h-24.735v21.106c8.7529-2.1487 17.049-5.9548 24.735-11.158z"/>
   <rect x="241.99" y="94.592" width="24.737" height="20.9"/>
   <rect x="272.61" y="146.33" width="24.715" height="20.912"/>
   <rect x="241.99" y="120.46" width="24.737" height="20.9"/>
   <rect x="241.99" y="146.33" width="24.737" height="20.912"/>
   <rect x="272.61" y="120.46" width="24.715" height="20.9"/>
   <rect x="272.61" y="94.592" width="24.715" height="20.9"/>
   <path d="m272.61 63.737h24.715v-6.4677c-3.3459-5.3767-7.0672-10.309-11.126-14.795h-13.589v21.263z"/>
   <path d="m303.21 141.36h12.269c0.40118-4.5596 0.66598-9.1761 0.66598-13.874 0-2.3859-0.16995-4.6916-0.27274-7.0274h-12.664l2e-3 20.902z"/>
   <path d="m303.21 89.616h7.9842c-1.9921-7.4067-4.5692-14.382-7.6521-20.907h-0.33203v20.907z"/>
  </g>
  <path d="m330.53 127.48c0-72.535-47.211-125.48-105.26-125.48s-105.27 52.95-105.27 125.48c0 38.663 13.411 73.478 34.733 97.581l-1.0553 0.5865c0.332 0.41437 33.196 41.485 42.84 61.867 7.5494 15.918 12.204 35.834 13.901 43.867h-3.7194v131.27l-6.2766 6.3474v11.213h50.763v-12.087l-7.8063-6.5814v-130.16h-3.0197c1.6917-8.0333 6.3794-27.951 13.895-43.867 9.6363-20.382 42.506-61.453 42.854-61.867l-1.2233-0.7017c21.273-24.075 34.642-58.856 34.642-97.467zm-196.16 0c0-2.3859 0.16995-4.6916 0.2727-7.0274h9.6581v20.9h-9.2628c-0.40909-4.558-0.66797-9.1744-0.66797-13.873zm15.808 13.874v-20.9h24.715v20.9h-24.715zm24.713 4.974v20.912h-24.713v-20.912h24.713zm-24.713-30.842v-20.9h24.715v20.9h-24.715zm0-25.876v-20.905h24.715v20.907l-24.715-0.0017zm0-25.879v-1.477c4.0533-7.3533 8.8478-13.928 14.152-19.786h10.563v21.263h-24.715zm-5.8774 30.855v20.9h-9.4664c0.56323-7.2564 1.6917-14.214 3.2253-20.9h6.2411zm-4.9782-4.9757c1.3873-5.1578 3.0534-10.105 4.9782-14.84v14.84h-4.9782zm4.9782 56.718v20.912h-4.6383c-1.8162-6.7217-3.17-13.702-4.0474-20.912h8.6857zm0 25.881v9.258c-1.17-3.0192-2.2688-6.0951-3.251-9.258h3.251zm5.8774 0h24.715v20.914h-24.715v-20.914zm85.944-77.623v20.9h-24.743v-20.9h24.743zm-24.743-4.9757v-20.905h24.743v20.907l-24.743-0.0017zm24.743 30.843v20.9h-24.743v-20.9h24.743zm0 25.874v20.912h-24.743v-20.912h24.743zm0 25.881v20.914h-24.743v-20.914h24.743zm0 25.868v20.608h-24.743v-20.608h24.743zm0-134.35h-24.743v-21.263h24.743v21.263zm-30.628 4.974v20.907h-24.713v-20.907h24.713zm-24.713-4.974v-21.263h24.713v21.263h-24.713zm24.713 30.855v20.9h-24.713v-20.9h24.713zm0 25.868v20.9h-24.713v-20.9h24.713zm0 25.874v20.912h-24.713v-20.912h24.713zm0 25.881v20.914h-24.713v-20.914h24.713zm0 25.868v20.608h-24.713v-20.608h24.713zm-24.713-160.58v-9.4535c7.6304-5.1545 15.931-8.9706 24.715-11.276v20.73h-24.715zm24.713 186.16v20.297c-8.7846-2.5764-17.085-6.8069-24.715-12.461v-7.8361h24.715zm5.8854 0h24.743v22.287c-3.5632 0.5614-7.1759 0.93732-10.852 0.93732-4.7352 0-9.3458-0.62656-13.887-1.5472l-0.0039-21.677zm30.612-30.538v-20.914h24.737v20.914h-24.737zm24.735 4.9556v20.608h-24.735v-20.608h24.735zm-24.735-30.837v-20.912h24.737v20.912h-24.737zm0-25.886v-20.9h24.737v20.9h-24.737zm0-25.868v-20.9h24.737v20.9h-24.737zm0-25.876v-20.905h24.737v20.907l-24.737-0.0017zm0-25.879v-21.263h24.737v21.263h-24.737zm24.735 159.93v9.948c-7.6857 5.2029-15.982 9.0107-24.737 11.161v-21.107l24.737-0.0017zm-24.735-186.16v-21.458c8.7529 1.9264 17.051 5.35 24.737 10.083v11.377l-24.737-0.0017zm55.334 19.764v6.4677h-24.715v-21.263h13.589c4.0593 4.4845 7.7786 9.4184 11.126 14.795zm13.873 32.347h-7.9842v-20.905h0.33203c3.083 6.5229 5.66 13.5 7.6521 20.905zm4.9506 37.869c0 4.6984-0.2648 9.3148-0.66598 13.874h-12.269v-20.9h12.664c0.1008 2.3341 0.27075 4.6398 0.27075 7.0258zm-18.824-32.893v20.9h-24.715v-20.9h24.715zm-24.715-4.9757v-20.905h24.715v20.907l-24.715-0.0017zm24.715 30.843v20.9h-24.715v-20.9h24.715zm0 25.874v20.912h-24.715v-20.912h24.715zm0 25.881v20.914h-24.715v-20.914h24.715zm5.8893-4.969v-20.912h11.692c-0.87549 7.2096-2.2312 14.19-4.0454 20.912h-7.6462zm6.2569 4.969c-1.7549 5.6992-3.8774 11.133-6.2569 16.354v-16.354h6.2569zm-6.2569-56.722v-20.9h9.251c1.5277 6.6866 2.6581 13.644 3.2233 20.9h-12.474zm-30.605 82.59h24.715v1.8797c-3.998 6.8537-8.5099 13.161-13.53 18.726h-11.186v-20.606zm8.8004-160.58h-8.7984v-7.3633c3.0513 2.2523 5.996 4.6866 8.7984 7.3633zm-45.288-22.511v22.511h-24.743v-21.966c4.5435-0.82204 9.1541-1.3768 13.887-1.3768 3.6798-0.001671 7.2925 0.33249 10.856 0.83207zm-61.231 17.36v5.1511h-5.7747c1.8775-1.7928 3.7826-3.5471 5.7747-5.1511zm-22.763 165.73h22.767v20.608h-8.162c-5.4782-6.0717-10.348-13.017-14.605-20.608zm19.498 25.582h3.2648v3.1328c-1.1205-0.98746-2.1759-2.0868-3.2648-3.1328zm69.29 59.346c-8.8893 18.767-13.875 41.831-15.176 48.38h-0.69958c-1.3123-6.5496-6.2846-29.614-15.174-48.38-4.087-8.6682-11.816-20.406-19.648-31.498 10.95 4.8754 22.757 7.5387 35.045 7.5387 12.423 0 24.328-2.7217 35.397-7.6824-7.8834 11.119-15.636 22.935-19.745 31.642zm31.694-53.792v-5.5538h6.2905c-2.0336 1.9666-4.1344 3.8128-6.2905 5.5538z"/>
 </g>
</svg>
