<?xml version="1.0" encoding="UTF-8"?>
<svg enable-background="new 0 0 300 300" viewBox="0 0 300 300" xmlns="http://www.w3.org/2000/svg" xmlns:xlink="http://www.w3.org/1999/xlink">
 <defs>
  <path id="b" d="m0 0h300v300h-300z"/>
  <clipPath id="a">
   <use xlink:href="#b"/>
  </clipPath>
 </defs>
 <g clip-path="url(#a)">
  <path d="m187.73 35.941c10.306-1.429 20.779 5.715 23.398 15.75 2.657 8.732-1.39 18.617-8.835 23.647-5.605 3.597-12.876 4.701-19.155 2.274-6.892-2.288-12.168-8.365-13.737-15.422-1.735-5.236-0.133-10.889 2.342-15.604 3.168-5.918 9.472-9.627 15.987-10.645z" fill="none" stroke="#000" stroke-miterlimit="10" stroke-width=".1"/>
  <path d="m187.73 35.941c10.306-1.429 20.779 5.715 23.398 15.75 2.657 8.732-1.39 18.617-8.835 23.647-5.605 3.597-12.876 4.701-19.155 2.274-6.892-2.288-12.168-8.365-13.737-15.422-1.735-5.236-0.133-10.889 2.342-15.604 3.168-5.918 9.472-9.627 15.987-10.645z"/>
  <path d="m264.717,81.489c4.313-10.387 9.244-20.54 12.246-31.412 1.371,8.266.232,16.637.406,24.954 .171,10.066 1.367,21.114-4.111,30.117-1.883,3.512-5.629,5.623-9.479,6.229-9.98,1.059-20.041-.609-29.609-3.439-6.287-1.846-12.707-4.104-17.768-8.41-3.357-2.739-5.105-7.604-3.336-11.727 1.396-3.98 5.922-5.845 9.889-5.636 7.599-.459 14.634,2.716 21.625,5.191 4.52,1.78 8.727,4.246 13.133,6.279 2.33-4.049 5.162-7.829 7.004-12.146z" fill="none" stroke="#000" stroke-miterlimit="10" stroke-width=".1"/>
  <path d="m264.717,81.489c4.313-10.387 9.244-20.54 12.246-31.412 1.371,8.266.232,16.637.406,24.954 .171,10.066 1.367,21.114-4.111,30.117-1.883,3.512-5.629,5.623-9.479,6.229-9.98,1.059-20.041-.609-29.609-3.439-6.287-1.846-12.707-4.104-17.768-8.41-3.357-2.739-5.105-7.604-3.336-11.727 1.396-3.98 5.922-5.845 9.889-5.636 7.599-.459 14.634,2.716 21.625,5.191 4.52,1.78 8.727,4.246 13.133,6.279 2.33-4.049 5.162-7.829 7.004-12.146z"/>
  <path d="m70.017,74.836c18.66.774 37.366,2.854 56.032,1.043 11.381-.479 22.851-2.718 34.201-.706 5.798,1.542 8.744,9.961 4.422,14.415-2.042,2.517-5.183,4.01-8.389,4.27-8.281,1.2-16.504-.884-24.722-1.637-12.179-2.114-24.102-5.458-36.066-8.526-8.924-1.554-17.091-5.629-25.478-8.859z" fill="none" stroke="#000" stroke-miterlimit="10" stroke-width=".1"/>
  <path d="m70.017,74.836c18.66.774 37.366,2.854 56.032,1.043 11.381-.479 22.851-2.718 34.201-.706 5.798,1.542 8.744,9.961 4.422,14.415-2.042,2.517-5.183,4.01-8.389,4.27-8.281,1.2-16.504-.884-24.722-1.637-12.179-2.114-24.102-5.458-36.066-8.526-8.924-1.554-17.091-5.629-25.478-8.859z"/>
  <path d="m120.222,109.257c9.127-6.066 18.587-12.888 29.872-13.787 5.714-.673 11.05,2.667 14.38,7.083 6.079,8.943 10.518,18.924 13.583,29.278 4.677-4.61 9.81-10.232 16.915-10.206 3.869.413 8.172,1.911 10.105,5.571 2.084,3.36 1.537,7.482 1.002,11.192-1.443,7.044-5.213,13.414-10.008,18.698-9.137,10.065-20.246,18.048-31.493,25.571-8.929,6.139-18.553,11.172-28.229,16.01 5.995-11.563 13.95-22.073 19.648-33.797-.933-4.036-3.648-7.492-4.519-11.598-3.252-10.151-4.748-20.715-6.448-31.205-17.621,4.538-34.6,11.28-52.236,15.779-4.711,1.213-9.361,2.675-14.132,3.646 4.69-4.577 9.306-9.259 14.312-13.494 9.031-6.32 18.239-12.388 27.248-18.741z" fill="none" stroke="#000" stroke-miterlimit="10" stroke-width=".1"/>
  <path d="m120.222,109.257c9.127-6.066 18.587-12.888 29.872-13.787 5.714-.673 11.05,2.667 14.38,7.083 6.079,8.943 10.518,18.924 13.583,29.278 4.677-4.61 9.81-10.232 16.915-10.206 3.869.413 8.172,1.911 10.105,5.571 2.084,3.36 1.537,7.482 1.002,11.192-1.443,7.044-5.213,13.414-10.008,18.698-9.137,10.065-20.246,18.048-31.493,25.571-8.929,6.139-18.553,11.172-28.229,16.01 5.995-11.563 13.95-22.073 19.648-33.797-.933-4.036-3.648-7.492-4.519-11.598-3.252-10.151-4.748-20.715-6.448-31.205-17.621,4.538-34.6,11.28-52.236,15.779-4.711,1.213-9.361,2.675-14.132,3.646 4.69-4.577 9.306-9.259 14.312-13.494 9.031-6.32 18.239-12.388 27.248-18.741z"/>
  <path d="m36.17,106.134c4.219-1.295 9.018-.407 12.607,2.141 5.82,4 8.867,10.561 12.956,16.088 12.237,16.824 26.491,32.061 41.324,46.606 18.024,17.476 37.297,33.684 57.806,48.17 7.741,6 16.352,10.833 23.773,17.24 3.912,3.045 5.472,8.836 2.986,13.247-3.24,5.282-7.869,9.653-13.121,12.912-4.609,2.722-10.807,3.032-15.374.056-5.991-3.83-9.658-10.139-14.772-14.928-7.612-7.369-15.454-14.509-22.811-22.137-20.597-20.127-42.073-39.332-63.032-59.08-11.12-9.878-24.183-17.702-33.515-29.484-4.75-5.808-5.146-14.714-1.181-21.027 3.248-4.147 7.283-8.056 12.354-9.804z" fill="none" stroke="#000" stroke-miterlimit="10" stroke-width=".1"/>
  <path d="m36.17,106.134c4.219-1.295 9.018-.407 12.607,2.141 5.82,4 8.867,10.561 12.956,16.088 12.237,16.824 26.491,32.061 41.324,46.606 18.024,17.476 37.297,33.684 57.806,48.17 7.741,6 16.352,10.833 23.773,17.24 3.912,3.045 5.472,8.836 2.986,13.247-3.24,5.282-7.869,9.653-13.121,12.912-4.609,2.722-10.807,3.032-15.374.056-5.991-3.83-9.658-10.139-14.772-14.928-7.612-7.369-15.454-14.509-22.811-22.137-20.597-20.127-42.073-39.332-63.032-59.08-11.12-9.878-24.183-17.702-33.515-29.484-4.75-5.808-5.146-14.714-1.181-21.027 3.248-4.147 7.283-8.056 12.354-9.804z"/>
  <path d="m28.704 119.89c2.511-3.627 6.037-6.73 10.266-8.15 4.151-0.889 7.583 2.314 10.092 5.179 2.922 3.81 5.244 8.046 8.172 11.855 20.382 26.963 44.625 50.778 70.311 72.655 14.475 12.062 29.795 23.052 45.272 33.776 3.634 2.697 7.863 4.955 10.187 9.013-2.294 6.292-7.806 11.37-13.911 13.963-3.953 1.678-7.633-1.21-10.299-3.835-4.145-4.56-8.151-9.254-12.62-13.504-9.215-8.463-18.004-17.373-26.873-26.195-17.987-16.98-36.212-33.704-54.288-50.589-11.23-10.821-25.493-18.427-35.033-30.982-3.151-3.553-3.37-9.058-1.276-13.186z" fill="none" stroke="#fff" stroke-miterlimit="10" stroke-width=".1"/>
  <path d="m28.704 119.89c2.511-3.627 6.037-6.73 10.266-8.15 4.151-0.889 7.583 2.314 10.092 5.179 2.922 3.81 5.244 8.046 8.172 11.855 20.382 26.963 44.625 50.778 70.311 72.655 14.475 12.062 29.795 23.052 45.272 33.776 3.634 2.697 7.863 4.955 10.187 9.013-2.294 6.292-7.806 11.37-13.911 13.963-3.953 1.678-7.633-1.21-10.299-3.835-4.145-4.56-8.151-9.254-12.62-13.504-9.215-8.463-18.004-17.373-26.873-26.195-17.987-16.98-36.212-33.704-54.288-50.589-11.23-10.821-25.493-18.427-35.033-30.982-3.151-3.553-3.37-9.058-1.276-13.186z" fill="#fff"/>
 </g>
</svg>
